HIERARCHY
ROOT Hips
{
	OFFSET 0.00000 0.00000 0.00000
	CHANNELS 6 Xposition Yposition Zposition Zrotation Yrotation Xrotation 
	JOINT LHipJoint
	{
		OFFSET 0 0 0
		CHANNELS 3 Zrotation Yrotation Xrotation
		JOINT LeftUpLeg
		{
			OFFSET 1.26600 -1.82114 0.91038
			CHANNELS 3 Zrotation Yrotation Xrotation
			JOINT LeftLeg
			{
				OFFSET 2.50076 -6.87080 0.00000
				CHANNELS 3 Zrotation Yrotation Xrotation
				JOINT LeftFoot
				{
					OFFSET 2.57364 -7.07102 0.00000
					CHANNELS 3 Zrotation Yrotation Xrotation
					JOINT LeftToeBase
					{
						OFFSET 0.13572 -0.37290 1.97004
						CHANNELS 3 Zrotation Yrotation Xrotation
						End Site
						{
							OFFSET 0.00000 -0.00000 1.01383
						}
					}
				}
			}
		}
	}
	JOINT RHipJoint
	{
		OFFSET 0 0 0
		CHANNELS 3 Zrotation Yrotation Xrotation
		JOINT RightUpLeg
		{
			OFFSET -1.20803 -1.82114 0.91038
			CHANNELS 3 Zrotation Yrotation Xrotation
			JOINT RightLeg
			{
				OFFSET -2.54916 -7.00377 0.00000
				CHANNELS 3 Zrotation Yrotation Xrotation
				JOINT RightFoot
				{
					OFFSET -2.56374 -7.04382 0.00000
					CHANNELS 3 Zrotation Yrotation Xrotation
					JOINT RightToeBase
					{
						OFFSET -0.23520 -0.64621 2.09921
						CHANNELS 3 Zrotation Yrotation Xrotation
						End Site
						{
							OFFSET -0.00000 -0.00000 1.10065
						}
					}
				}
			}
		}
	}
	JOINT LowerBack
	{
		OFFSET 0 0 0
		CHANNELS 3 Zrotation Yrotation Xrotation
		JOINT Spine
		{
			OFFSET 0.05492 2.10797 -0.12074
			CHANNELS 3 Zrotation Yrotation Xrotation
			JOINT Spine1
			{
				OFFSET 0.04577 2.11592 -0.04483
				CHANNELS 3 Zrotation Yrotation Xrotation
				JOINT Neck
				{
					OFFSET 0 0 0
					CHANNELS 3 Zrotation Yrotation Xrotation
					JOINT Neck1
					{
						OFFSET -0.10759 1.80167 0.15770
						CHANNELS 3 Zrotation Yrotation Xrotation
						JOINT Head
						{
							OFFSET 0.09237 1.77509 -0.40848
							CHANNELS 3 Zrotation Yrotation Xrotation
							End Site
							{
								OFFSET 0.03805 1.84093 -0.15754
							}
						}
					}
				}
				JOINT LeftShoulder
				{
					OFFSET 0 0 0
					CHANNELS 3 Zrotation Yrotation Xrotation
					JOINT LeftArm
					{
						OFFSET 3.42372 1.09575 -0.28209
						CHANNELS 3 Zrotation Yrotation Xrotation
						JOINT LeftForeArm
						{
							OFFSET 4.95681 -0.00000 0.00000
							CHANNELS 3 Zrotation Yrotation Xrotation
							JOINT LeftHand
							{
								OFFSET 3.40915 -0.00000 0.00000
								CHANNELS 3 Zrotation Yrotation Xrotation
								JOINT LeftFingerBase
								{
									OFFSET 0 0 0
									CHANNELS 3 Zrotation Yrotation Xrotation
									JOINT LeftHandIndex1
									{
										OFFSET 0.61640 -0.00000 0.00000
										CHANNELS 3 Zrotation Yrotation Xrotation
										End Site
										{
											OFFSET 0.49696 -0.00000 0.00000
										}
									}
								}
								JOINT LThumb
								{
									OFFSET 0 0 0
									CHANNELS 3 Zrotation Yrotation Xrotation
									End Site
									{
										OFFSET 0.50455 -0.00000 0.50455
									}
								}
							}
						}
					}
				}
				JOINT RightShoulder
				{
					OFFSET 0 0 0
					CHANNELS 3 Zrotation Yrotation Xrotation
					JOINT RightArm
					{
						OFFSET -3.24731 1.15872 -0.32221
						CHANNELS 3 Zrotation Yrotation Xrotation
						JOINT RightForeArm
						{
							OFFSET -5.35200 -0.00000 0.00000
							CHANNELS 3 Zrotation Yrotation Xrotation
							JOINT RightHand
							{
								OFFSET -3.43721 -0.00000 -0.00000
								CHANNELS 3 Zrotation Yrotation Xrotation
								JOINT RightFingerBase
								{
									OFFSET 0 0 0
									CHANNELS 3 Zrotation Yrotation Xrotation
									JOINT RightHandIndex1
									{
										OFFSET -0.72009 -0.00000 0.00000
										CHANNELS 3 Zrotation Yrotation Xrotation
										End Site
										{
											OFFSET -0.58056 -0.00000 0.00000
										}
									}
								}
								JOINT RThumb
								{
									OFFSET 0 0 0
									CHANNELS 3 Zrotation Yrotation Xrotation
									End Site
									{
										OFFSET -0.58942 -0.00000 0.58942
									}
								}
							}
						}
					}
				}
			}
		}
	}
}
MOTION
Frames: 15
Frame Time: .0083333
18.5681 20.2730 -12.7784 -186.6130 -189.9070 539.7850 0.0000 0.0000 0.0000 -7.9548 -10.6140 -19.0618 5.9610 14.3904 44.8250 0.9150 -4.0228 -17.1726 0.0702 -1.7096 -4.7039 0.0000 0.0000 0.0000 30.1275 -6.1146 -14.3675 -3.7102 -11.7645 34.9038 -1.7166 3.0580 -23.9878 -0.2960 -3.4985 9.6698 6.2513 1.3731 7.4058 3.7860 2.3538 2.6512 0.2130 1.1869 -1.3118 -9.8518 -3.0114 -10.4062 5.6811 -3.7988 39.8009 3.6926 -2.2132 16.3296 -0.0000 -0.0000 0.0000 -88.3434 6.3553 22.8693 20.5170 -31.2601 -5.7972 -0.0000 0.0000 -7.1317 21.6207 17.4554 6.7800 -7.1250 0.0000 -0.0000 -6.1792 48.5692 -0.5459 -0.0000 -0.0000 0.0000 84.2089 0.5233 18.4835 -19.2782 29.7628 -5.1682 0.0000 -0.0000 -13.2287 -19.7668 9.8205 -3.5075 7.1250 -0.0000 -0.0000 5.1400 -19.5793 3.1329
18.5858 20.2819 -12.7837 -186.8260 -189.3270 539.7330 0.0000 0.0000 0.0000 -7.5420 -10.7549 -18.9480 5.9967 14.4252 44.9685 0.8790 -5.2593 -16.7310 0.0401 -1.2929 -3.5551 0.0000 0.0000 0.0000 30.2727 -5.9945 -14.1246 -3.6653 -11.7011 34.6828 -1.6914 3.3456 -23.7477 -0.3233 -3.6545 10.1066 6.4811 1.3738 7.4446 3.8644 2.3756 2.6509 0.1642 1.1975 -1.3260 -9.9058 -3.0043 -10.4375 5.7793 -3.8232 39.9453 3.7485 -2.2248 16.4221 -0.0000 0.0000 0.0000 -88.5222 6.4853 23.5319 20.6376 -31.4029 -5.8600 -0.0000 0.0000 -7.0366 21.1008 17.4898 6.6152 -7.1250 0.0000 -0.0000 -6.6863 48.5273 -0.5842 -0.0000 0.0000 0.0000 84.1187 0.5022 18.3904 -19.1060 29.5502 -5.0830 0.0000 -0.0000 -13.4483 -19.5334 9.5170 -3.3571 7.1250 -0.0000 -0.0000 5.3039 -19.9149 3.1936
18.6036 20.2925 -12.7871 -186.8620 -188.8800 539.7240 0.0000 0.0000 0.0000 -7.3293 -10.9593 -18.8346 6.0251 14.4526 45.0822 0.8501 -6.4267 -16.4461 0.0364 -1.2315 -3.3861 0.0000 0.0000 0.0000 30.2278 -5.8983 -13.8831 -3.6115 -11.6247 34.4169 -1.6623 3.6503 -23.4786 -0.3833 -3.9759 11.0090 6.4899 1.2717 7.3739 3.9304 2.2291 2.7336 0.2426 1.1282 -1.2094 -9.9214 -2.9203 -10.5806 5.7173 -3.6666 40.0293 3.7518 -2.1748 16.4833 -0.0000 0.0000 0.0000 -88.7795 6.4593 23.7822 20.6634 -31.4333 -5.8734 -0.0000 0.0000 -6.4793 21.6537 18.2890 7.1017 -7.1250 0.0000 -0.0000 -6.3630 49.4493 -0.7006 -0.0000 0.0000 0.0000 83.9539 0.6593 18.6493 -18.8615 29.2462 -4.9630 0.0000 -0.0000 -13.9309 -19.6117 9.2922 -3.2928 7.1250 -0.0000 -0.0000 5.2464 -20.1464 3.1315
18.6168 20.3020 -12.7932 -186.8650 -188.4520 539.7490 0.0000 0.0000 0.0000 -7.1297 -11.1746 -18.7499 6.0384 14.4654 45.1355 0.8065 -7.5378 -16.0928 0.0346 -1.2000 -3.2993 0.0000 0.0000 0.0000 30.1873 -5.6804 -13.6753 -3.5616 -11.5530 34.1683 -1.6442 3.8237 -23.3155 -0.4028 -4.0744 11.2861 6.4695 1.1904 7.3146 3.9017 2.1076 2.8054 0.2365 1.0710 -1.1067 -9.7471 -2.8803 -10.6393 5.6352 -3.6313 40.0647 3.6890 -2.1492 16.5041 0.0000 -0.0000 0.0000 -88.7898 6.4269 23.9639 20.6418 -31.4079 -5.8622 -0.0000 0.0000 -5.8617 22.1301 18.8331 7.4789 -7.1250 0.0000 -0.0000 -6.0452 50.0969 -0.7620 0.0000 -0.0000 0.0000 84.0621 0.9454 18.2984 -18.5786 28.8917 -4.8256 0.0000 -0.0000 -13.3929 -20.5764 10.0504 -3.7483 7.1250 -0.0000 -0.0000 4.5670 -19.2782 2.8120
18.6258 20.3088 -12.8007 -187.0150 -187.9750 539.7370 0.0000 0.0000 0.0000 -6.7384 -11.3925 -18.6394 6.0346 14.4618 45.1206 0.7446 -8.8335 -15.6656 0.0232 -0.9842 -2.7055 0.0000 0.0000 0.0000 30.3251 -5.4178 -13.4759 -3.5278 -11.5040 33.9992 -1.6277 3.9833 -23.1675 -0.4177 -4.1486 11.4952 6.6166 1.1458 7.4498 3.8626 2.0717 2.7842 0.1136 1.0509 -1.1981 -9.5360 -2.8691 -10.6510 5.5860 -3.6685 40.1425 3.6243 -2.1450 16.5443 -0.0000 -0.0000 0.0000 -88.7134 6.4355 24.1855 20.5142 -31.2569 -5.7958 -0.0000 0.0000 -5.2919 22.2007 18.1457 7.2434 -7.1250 0.0000 -0.0000 -5.7947 49.3849 -0.6284 -0.0000 -0.0000 0.0000 84.3056 0.8696 17.7125 -18.6513 28.9831 -4.8607 0.0000 -0.0000 -12.2961 -20.7128 10.1888 -3.8267 7.1250 -0.0000 -0.0000 4.4727 -19.1212 2.7692
18.6441 20.3092 -12.8044 -187.0730 -187.4000 539.7280 0.0000 0.0000 0.0000 -6.5394 -11.5680 -18.3773 6.0103 14.4383 45.0230 0.6986 -10.0755 -15.4773 0.0305 -1.1272 -3.0989 0.0000 0.0000 0.0000 30.2817 -5.3638 -13.3772 -3.5131 -11.4827 33.9256 -1.6083 4.3748 -22.9629 -0.4047 -4.0843 11.3138 6.7455 1.1201 7.6131 3.8076 2.0657 2.7110 -0.0195 1.0428 -1.3580 -9.3750 -2.7966 -10.5255 5.5198 -3.6023 40.1644 3.5758 -2.1074 16.5085 -0.0000 -0.0000 0.0000 -88.6589 6.5988 24.4746 20.4634 -31.1966 -5.7695 -0.0000 0.0000 -4.7460 22.0177 17.1927 6.8163 -7.1250 0.0000 -0.0000 -5.7339 48.3523 -0.4756 -0.0000 -0.0000 0.0000 84.4047 0.4387 17.7813 -18.9911 29.4077 -5.0265 0.0000 -0.0000 -12.3784 -19.8791 9.8141 -3.5268 7.1250 -0.0000 -0.0000 5.0599 -19.5782 3.0838
18.6693 20.3101 -12.8047 -187.0550 -186.8360 539.7790 0.0000 0.0000 0.0000 -6.4828 -11.7529 -18.1297 5.9699 14.3991 44.8607 0.6700 -11.2111 -15.5046 0.0703 -1.7100 -4.7049 0.0000 0.0000 0.0000 30.1381 -5.2795 -13.3481 -3.5074 -11.4743 33.8967 -1.5932 4.6919 -22.8071 -0.3703 -3.9086 10.8197 6.8208 1.1071 7.5760 3.7650 2.0516 2.6637 -0.1039 1.0342 -1.3826 -9.3919 -2.7269 -10.3648 5.5875 -3.5460 40.1838 3.6187 -2.0836 16.4733 0.0000 0.0000 0.0000 -88.6102 6.8315 24.9273 20.5540 -31.3040 -5.8165 -0.0000 0.0000 -4.4122 21.9894 17.2156 6.8154 -7.1250 0.0000 -0.0000 -5.7666 48.3722 -0.4812 0.0000 0.0000 0.0000 84.4161 0.3618 17.7965 -18.9768 29.3898 -5.0194 0.0000 -0.0000 -12.6587 -19.1817 8.9877 -3.1108 7.1250 -0.0000 -0.0000 5.5537 -20.4939 3.2730
18.6937 20.3116 -12.8073 -186.9290 -186.2080 539.8130 0.0000 0.0000 0.0000 -6.5807 -11.9180 -17.8473 5.9133 14.3438 44.6326 0.6262 -12.2050 -15.4107 0.1398 -2.4096 -6.6390 0.0000 0.0000 0.0000 29.9058 -4.9377 -13.1799 -3.5070 -11.4738 33.8950 -1.5791 4.7712 -22.6921 -0.3420 -3.7577 10.3959 6.7917 1.1688 7.5482 3.6786 2.1245 2.6792 -0.1821 1.0715 -1.3452 -9.4229 -2.7326 -10.3746 5.7252 -3.6122 40.2516 3.6781 -2.1027 16.5239 -0.0000 -0.0000 0.0000 -88.5791 6.8792 25.4540 20.5922 -31.3492 -5.8363 -0.0000 0.0000 -4.4030 21.8800 16.6085 6.5482 -7.1250 0.0000 -0.0000 -5.7272 47.7159 -0.3850 -0.0000 -0.0000 0.0000 84.5162 0.4300 17.4915 -18.8215 29.1963 -4.9435 0.0000 -0.0000 -12.6122 -19.5621 8.3734 -2.9622 7.1250 -0.0000 -0.0000 5.2792 -21.1174 3.0354
18.7229 20.3135 -12.8090 -186.8430 -185.5250 539.8040 0.0000 0.0000 0.0000 -6.6858 -12.0074 -17.4994 5.8472 14.2786 44.3652 0.5676 -13.0919 -15.1948 0.1886 -2.7973 -7.7148 0.0000 0.0000 0.0000 29.6574 -4.7835 -13.0170 -3.5033 -11.4684 33.8763 -1.5516 5.1344 -22.4428 -0.3213 -3.6437 10.0763 6.8508 1.2376 7.5799 3.6120 2.2178 2.7185 -0.2912 1.1193 -1.3118 -9.3578 -2.7294 -10.5030 5.7057 -3.6179 40.3424 3.6599 -2.1014 16.6036 -0.0000 -0.0000 0.0000 -88.6751 6.7882 25.6223 20.4893 -31.2273 -5.7829 -0.0000 0.0000 -3.9648 21.2937 14.9413 5.7384 -7.1250 0.0000 -0.0000 -5.9094 45.8775 -0.1284 -0.0000 -0.0000 0.0000 84.5418 0.2542 17.5638 -18.7821 29.1470 -4.9243 0.0000 -0.0000 -13.4346 -20.4243 9.5510 -3.5356 7.1250 -0.0000 -0.0000 4.6677 -19.8182 2.8180
18.7518 20.3185 -12.8059 -186.8930 -184.9010 539.8830 0.0000 0.0000 0.0000 -6.5986 -12.1757 -17.2301 5.7754 14.2071 44.0737 0.5094 -14.0696 -15.0675 0.1223 -2.2542 -6.2086 0.0000 0.0000 0.0000 29.5516 -4.8057 -13.0324 -3.4929 -11.4531 33.8238 -1.5256 5.6850 -22.1935 -0.3008 -3.5264 9.7480 7.0163 1.2749 7.4441 3.6502 2.2625 2.7564 -0.3420 1.1456 -1.1890 -9.4496 -2.7023 -10.6987 5.6737 -3.5304 40.4642 3.6816 -2.0869 16.7127 0.0000 0.0000 0.0000 -88.8337 6.6667 25.8841 20.3945 -31.1147 -5.7338 -0.0000 0.0000 -3.4273 20.9972 14.3065 5.4179 -7.1250 0.0000 -0.0000 -6.0522 45.1711 -0.0257 0.0000 0.0000 0.0000 84.3889 0.1918 17.7740 -18.6560 28.9890 -4.8630 0.0000 -0.0000 -13.7728 -21.2058 9.7887 -3.7740 7.1250 -0.0000 -0.0000 4.1141 -19.5096 2.5104
18.7745 20.3239 -12.8001 -186.9530 -184.2440 540.0110 0.0000 0.0000 0.0000 -6.4683 -12.3198 -16.9942 5.6979 14.1290 43.7568 0.4591 -14.8891 -14.9870 0.0369 -1.2391 -3.4070 0.0000 0.0000 0.0000 29.5389 -4.4571 -12.9614 -3.4824 -11.4378 33.7709 -1.5161 5.8668 -22.1067 -0.2789 -3.3969 9.3858 7.0251 1.2650 7.2924 3.7445 2.2378 2.7232 -0.2437 1.1333 -1.1442 -9.5988 -2.5864 -10.7979 5.6782 -3.3171 40.6216 3.7532 -2.0275 16.8044 0.0000 0.0000 0.0000 -88.9384 6.7618 26.4046 20.4403 -31.1692 -5.7575 -0.0000 0.0000 -3.4314 21.3421 14.2298 5.4862 -7.1250 0.0000 -0.0000 -5.7190 45.1329 -0.0188 0.0000 0.0000 0.0000 84.1940 0.1397 18.2014 -18.5831 28.8974 -4.8277 0.0000 -0.0000 -13.2337 -22.5165 8.3465 -3.4437 7.1250 -0.0000 -0.0000 3.1433 -20.9614 1.8135
18.7969 20.3245 -12.7935 -186.9820 -183.6030 540.0700 0.0000 0.0000 0.0000 -6.4446 -12.2440 -16.7500 5.6117 14.0412 43.4029 0.4490 -15.2386 -15.0632 0.0523 -1.4751 -4.0571 0.0000 0.0000 0.0000 29.4801 -4.0575 -12.7898 -3.4778 -11.4311 33.7479 -1.5060 6.1004 -22.0142 -0.2937 -3.4851 9.6323 6.8864 1.1481 7.2388 3.8397 2.0768 2.6141 -0.0569 1.0474 -1.2456 -9.6183 -2.3514 -10.6458 5.6116 -2.9590 40.7312 3.7891 -1.9006 16.7813 -0.0000 -0.0000 0.0000 -89.1525 7.1346 26.2825 20.4849 -31.2221 -5.7806 -0.0000 0.0000 -3.4280 21.4976 13.7217 5.3374 -7.1250 0.0000 -0.0000 -5.4776 44.6146 0.0523 -0.0000 -0.0000 0.0000 83.9780 -0.1156 19.1031 -18.6097 28.9308 -4.8406 0.0000 -0.0000 -13.1908 -23.2985 9.8966 -4.2330 7.1250 -0.0000 -0.0000 2.6271 -19.2303 1.6170
18.8248 20.3203 -12.7842 -186.8580 -182.9420 540.1660 0.0000 0.0000 0.0000 -6.6578 -12.0490 -16.5358 5.5175 13.9439 43.0132 0.4891 -15.1894 -15.3884 0.1904 -2.8102 -7.7508 0.0000 0.0000 0.0000 29.1813 -4.0154 -12.7823 -3.4767 -11.4294 33.7420 -1.4838 6.7456 -21.8122 -0.3087 -3.5723 9.8763 6.6935 1.0864 7.0880 3.8716 1.9723 2.5321 0.0932 0.9926 -1.2605 -9.6954 -2.2026 -10.4246 5.4911 -2.6992 40.7160 3.7874 -1.8270 16.6856 0.0000 0.0000 0.0000 -89.4625 7.5503 25.9798 20.5963 -31.3540 -5.8384 -0.0000 0.0000 -3.2658 21.2535 14.0211 5.3833 -7.1250 0.0000 -0.0000 -5.7594 44.9017 0.0140 0.0000 0.0000 0.0000 83.7516 -0.3516 19.9981 -18.5190 28.8167 -4.7968 0.0000 -0.0000 -14.2673 -24.1437 7.4149 -3.3107 7.1250 -0.0000 -0.0000 1.9394 -21.8648 1.0783
18.8527 20.3178 -12.7709 -186.7150 -182.3090 540.3380 0.0000 0.0000 0.0000 -6.8686 -11.9820 -16.3316 5.4249 13.8469 42.6277 0.4767 -15.1603 -15.2680 0.1965 -2.8544 -7.8736 0.0000 0.0000 0.0000 28.8751 -3.9146 -12.8256 -3.4710 -11.4210 33.7134 -1.4564 7.2332 -21.5920 -0.3096 -3.5773 9.8903 6.5827 1.1388 6.8505 3.8668 2.0141 2.4776 0.1514 1.0138 -1.1870 -9.9583 -2.2476 -10.4481 5.5263 -2.7186 40.8107 3.8518 -1.8773 16.7560 0.0000 -0.0000 0.0000 -89.5682 7.9409 26.4123 20.8893 -31.6989 -5.9917 -0.0000 0.0000 -3.3401 21.3149 15.2353 5.8543 -7.1250 0.0000 -0.0000 -5.9522 46.1900 -0.1754 0.0000 -0.0000 0.0000 83.6310 -0.4827 20.0123 -18.4414 28.7187 -4.7594 0.0000 -0.0000 -15.3796 -23.9851 7.7062 -3.4143 7.1250 -0.0000 -0.0000 2.0630 -21.5575 1.1614
18.8770 20.3207 -12.7576 -186.8120 -181.8010 540.4120 0.0000 0.0000 0.0000 -6.7649 -12.0025 -16.0644 5.3377 13.7543 42.2618 0.3921 -15.2358 -14.5585 0.0466 -1.3939 -3.8332 0.0000 0.0000 0.0000 28.8658 -3.8073 -12.7682 -3.4633 -11.4098 33.6747 -1.4276 7.5554 -21.3710 -0.3144 -3.6044 9.9662 6.7778 1.1954 6.7001 3.8607 2.0851 2.4895 0.0363 1.0523 -1.0799 -10.1622 -2.3999 -10.6902 5.6268 -2.9208 40.9259 3.9077 -1.9845 16.9166 0.0000 -0.0000 0.0000 -89.4452 8.1167 27.0866 21.0789 -31.9204 -6.0916 -0.0000 0.0000 -3.5388 20.8626 16.1893 6.0654 -7.1250 0.0000 -0.0000 -6.5914 47.1312 -0.3481 0.0000 -0.0000 0.0000 83.6645 -0.4440 18.9541 -18.4785 28.7655 -4.7773 0.0000 -0.0000 -14.9631 -21.7060 7.9641 -3.1569 7.1250 -0.0000 -0.0000 3.7238 -21.4240 2.1107
